<svg width="42" height="66" viewBox="0 0 42 66" fill="none" xmlns="http://www.w3.org/2000/svg">
<path opacity="0.6" d="M23 10C23 9.44771 22.5523 9 22 9C21.4477 9 21 9.44771 21 10H23ZM21 24C21 24.5523 21.4477 25 22 25C22.5523 25 23 24.5523 23 24H21ZM40 21V45H42V21H40ZM2 45V21H0V45H2ZM21 64C10.5066 64 2 55.4934 2 45H0C0 56.598 9.40202 66 21 66V64ZM40 45C40 55.4934 31.4934 64 21 64V66C32.598 66 42 56.598 42 45H40ZM21 2C31.4934 2 40 10.5066 40 21H42C42 9.40202 32.598 0 21 0V2ZM21 0C9.40202 0 0 9.40202 0 21H2C2 10.5066 10.5066 2 21 2V0ZM21 10V24H23V10H21Z" fill="#BFBFBF"/>
</svg>
