<svg width="38" height="36" viewBox="0 0 38 36" fill="none" xmlns="http://www.w3.org/2000/svg">
<path id="Fill-12" d="M34.691,18.688,27.469,31.844a1.8,1.8,0,0,1-1.133.687H11.893a1.8,1.8,0,0,1-1.133-.687L3.538,18.688a2.006,2.006,0,0,1,0-1.376L10.76,4.156a1.8,1.8,0,0,1,1.133-.687H26.336a1.8,1.8,0,0,1,1.133.687l7.221,13.156a2.006,2.006,0,0,1,0,1.376m3.084-2.694L30.1,2.005A4.2,4.2,0,0,0,26.794,0H11.436a4.2,4.2,0,0,0-3.3,2.005L.454,15.995a4.655,4.655,0,0,0,0,4.011L8.132,33.995A4.194,4.194,0,0,0,11.434,36H26.792a4.194,4.194,0,0,0,3.3-2.005l7.679-13.989a4.655,4.655,0,0,0,0-4.011" transform="translate(0)" fill="#000000"></path>
<path id="Fill-13" d="M17.525,42.254H28.937V39.81H17.525Z" transform="translate(-9.822 -21.519)" fill="#000000"></path>
<path id="Fill-14" d="M22.616,52.228H31.79V49.784H22.616Z" transform="translate(-12.675 -26.91)" fill="#000000"></path>
<path id="Fill-15" d="M27.706,62.2h6.937V59.758H27.706Z" transform="translate(-15.528 -32.302)" fill="#000000"></path>
</svg>