<svg width="16" height="29" viewBox="0 0 16 29" fill="none" xmlns="http://www.w3.org/2000/svg">
<path opacity="0.6" d="M7.29289 28.7071C7.68342 29.0976 8.31658 29.0976 8.70711 28.7071L15.0711 22.3431C15.4616 21.9526 15.4616 21.3195 15.0711 20.9289C14.6805 20.5384 14.0474 20.5384 13.6569 20.9289L8 26.5858L2.34314 20.9289C1.95262 20.5384 1.31946 20.5384 0.928931 20.9289C0.538407 21.3195 0.538407 21.9526 0.928931 22.3431L7.29289 28.7071ZM7 -4.37114e-08L7 1.75L9 1.75L9 4.37114e-08L7 -4.37114e-08ZM7 5.25L7 8.75L9 8.75L9 5.25L7 5.25ZM7 12.25L7 15.75L9 15.75L9 12.25L7 12.25ZM7 19.25L7 22.75L9 22.75L9 19.25L7 19.25ZM7 26.25L7 28L9 28L9 26.25L7 26.25Z" fill="#BFBFBF"/>
</svg>
