<svg width="32" height="32" viewBox="0 0 32 32" fill="none" xmlns="http://www.w3.org/2000/svg">
<path d="M22.3667 5.19476L27.3778 10.8334C27.5889 11.0709 27.5889 11.4585 27.3778 11.696L15.2444 25.3487L10.0889 25.9926C9.4 26.0801 8.81667 25.4237 8.89444 24.6486L9.46667 18.8474L21.6 5.19476C21.8111 4.95722 22.1556 4.95722 22.3667 5.19476ZM31.3667 3.76324L28.6556 0.712639C27.8111 -0.237546 26.4389 -0.237546 25.5889 0.712639L23.6222 2.92557C23.4111 3.16312 23.4111 3.55069 23.6222 3.78824L28.6333 9.42684C28.8444 9.66439 29.1889 9.66439 29.4 9.42684L31.3667 7.21391C32.2111 6.25747 32.2111 4.71342 31.3667 3.76324ZM21.3333 21.6355V27.9992H3.55556V7.99531H16.3222C16.5 7.99531 16.6667 7.91405 16.7944 7.77652L19.0167 5.27603C19.4389 4.80094 19.1389 3.99453 18.5444 3.99453H2.66667C1.19444 3.99453 0 5.33854 0 6.99512V28.9994C0 30.656 1.19444 32 2.66667 32H22.2222C23.6944 32 24.8889 30.656 24.8889 28.9994V19.135C24.8889 18.4661 24.1722 18.1348 23.75 18.6036L21.5278 21.1041C21.4056 21.2479 21.3333 21.4354 21.3333 21.6355Z" fill="#F4F4F4"/>
</svg>
