<svg width="33" height="32" viewBox="0 0 33 32" fill="none" xmlns="http://www.w3.org/2000/svg">
<path d="M22.1867 6.17392C18.7843 6.17392 15.9744 3.99998 11.6967 3.99998C10.1123 3.99998 8.69295 4.27398 7.37638 4.75079C7.55884 4.28171 7.6365 3.77944 7.60406 3.27817C7.49156 1.50092 6.01149 0.075353 4.204 0.00297798C2.1727 -0.0783971 0.5 1.51848 0.5 3.49998C0.5 4.68911 1.10298 5.73904 2.02381 6.37155V30.5C2.02381 31.3284 2.70603 32 3.54762 32H4.56349C5.40508 32 6.0873 31.3284 6.0873 30.5V24.6C7.88483 23.846 10.1243 23.2174 13.353 23.2174C16.7554 23.2174 19.5653 25.3913 23.843 25.3913C26.9013 25.3913 29.3457 24.3729 31.6211 22.8377C32.1724 22.4657 32.5 21.8482 32.5 21.1903V5.99654C32.5 4.53448 30.9591 3.56717 29.6121 4.18304C27.4319 5.17979 24.7578 6.17392 22.1867 6.17392Z" fill="#F4F4F4"/>
</svg>
