<svg width="32" height="32" viewBox="0 0 32 32" fill="none" xmlns="http://www.w3.org/2000/svg">
<path d="M18.6667 8.5V0H2C0.891667 0 0 0.66875 0 1.5V30.5C0 31.3312 0.891667 32 2 32H30C31.1083 32 32 31.3312 32 30.5V10H20.6667C19.5667 10 18.6667 9.325 18.6667 8.5ZM24.0983 22.0006H18.6667V27.0006C18.6667 27.5531 18.07 28.0006 17.3333 28.0006H14.6667C13.93 28.0006 13.3333 27.5531 13.3333 27.0006V22.0006H7.90167C6.71167 22.0006 6.1175 20.92 6.9625 20.2906L14.9975 14.3094C15.5517 13.8962 16.4467 13.8962 17.0008 14.3094L25.0358 20.2906C25.8817 20.92 25.2883 22.0006 24.0983 22.0006ZM31.4167 6.5625L23.2583 0.4375C22.8833 0.15625 22.375 0 21.8417 0H21.3333V8H32V7.61875C32 7.225 31.7917 6.84375 31.4167 6.5625Z" fill="#F4F4F4"/>
</svg>
